<svg xmlns="http://www.w3.org/2000/svg" width="64" height="65" viewBox="0 0 64.75 65.438">
  <path d="M32.318-.009a32.547 32.547 0 00-32.319 30.1l17.383 7.248a9.065 9.065 0 015.167-1.607c.172 0 .342 0 .512.014l7.729-11.307v-.158a12.231 12.231 0 1112.23 12.345h-.278l-11.026 7.935q.012.217.012.438a9.175 9.175 0 01-18.182 1.83L1.115 41.637A32.475 32.475 0 1032.318-.009zm-11.994 49.66l-3.983-1.665a6.854 6.854 0 0012.554-.338 6.95 6.95 0 00.012-5.316 6.853 6.853 0 00-8.8-3.854l4.116 1.726a5.125 5.125 0 012.73 6.691 5.061 5.061 0 01-6.629 2.756zm30.845-25.369a8.15 8.15 0 10-8.149 8.221 8.2 8.2 0 008.149-8.221zm-14.255-.014a6.121 6.121 0 116.118 6.174 6.146 6.146 0 01-6.118-6.174z" fill="currentColor" fill-rule="evenodd"/>
</svg>