<svg xmlns="http://www.w3.org/2000/svg" width="69" height="63" viewBox="0 0 69.188 63.062">
  <path d="M63.069 63.067H6.1a6.1 6.1 0 01-6.1-6.1V6.093a6.1 6.1 0 016.1-6.1h56.974a6.1 6.1 0 016.105 6.1v50.872a6.105 6.105 0 01-6.11 6.102zM8.132 49.842a3.05 3.05 0 003.05 3.049h11.192v-4.068h-9.155a1.016 1.016 0 01-1.017-1.015V41.7a1.018 1.018 0 011.017-1.015h9.157v-4.069H11.185a3.047 3.047 0 00-3.05 3.049v10.176zM24.41 13.215a3.052 3.052 0 00-3.052-3.051H11.185a3.05 3.05 0 00-3.05 3.051v10.174a3.051 3.051 0 003.05 3.051h7.123v-4.067h-5.086a1.019 1.019 0 01-1.017-1.018v-6.1a1.017 1.017 0 011.017-1.018h6.106a1.016 1.016 0 011.014 1.018v12.207a1.016 1.016 0 01-1.014 1.019H8.135v4.072h13.224a3.056 3.056 0 003.052-3.056V13.215zm0 26.451v10.176a3.052 3.052 0 003.052 3.049h10.173a3.052 3.052 0 003.053-3.049V39.666a3.049 3.049 0 00-3.053-3.049H27.469a3.049 3.049 0 00-3.056 3.049zm18.313-26.451a3.052 3.052 0 00-3.055-3.051h-10.17a3.05 3.05 0 00-3.05 3.051v10.174a3.051 3.051 0 003.05 3.051h10.171a3.051 3.051 0 003.053-3.051V13.215zm18.313 0a3.053 3.053 0 00-3.05-3.051H47.812a3.05 3.05 0 00-3.051 3.051v10.174a3.052 3.052 0 003.051 3.051h7.123v-4.067h-5.09a1.018 1.018 0 01-1.015-1.018v-6.1a1.016 1.016 0 011.015-1.018h6.106a1.017 1.017 0 011.018 1.014v12.207a1.017 1.017 0 01-1.017 1.019H44.759v4.072h13.225a3.057 3.057 0 003.053-3.056V13.215zm0 23.4h-15.26a3.047 3.047 0 00-3.05 3.049v13.225h4.072V41.7a1.015 1.015 0 011.014-1.015h2.033v12.2h4.07v-12.2h3.054v12.2h4.071V36.617zm-23.4-14.244h-6.1a1.018 1.018 0 01-1.019-1.018v-6.1a1.017 1.017 0 011.019-1.018h6.1a1.019 1.019 0 011.019 1.018v6.1a1.02 1.02 0 01-1.017 1.02zm-8.14 18.313h6.107a1.019 1.019 0 011.017 1.017v6.105a1.016 1.016 0 01-1.017 1.015h-6.107a1.016 1.016 0 01-1.017-1.015V41.7a1.02 1.02 0 011.019-1.014z" fill="currentColor" fill-rule="evenodd"/>
</svg>