<svg xmlns="http://www.w3.org/2000/svg" data-v-50370f16="" viewBox="0 0 477 719" class="flex-shrink-0 block px-3 w-16 md:w-14"><path data-v-50370f16="" d="M329.285 395.116c.853.952 1.66 1.945 2.388 3.005-2.28 1.91-4.55 3.82-6.84 5.72-.328-3.115-.617-6.236-.705-9.362l-3.023-.374 2.998-1.489c0-.838.012-1.676.05-2.515.589.534 1.178 1.071 1.76 1.615l6.742-3.35a230.092 230.092 0 0 1-6.542-7.545c-3.77-3.55-4.09-9.021-6.19-13.5-2.68-1.9-5.1-4.15-7.73-6.101-.13-.449-.39-1.33-.52-1.77 3.13-2.96 6.11-6.07 9.18-9.08.46-9.33 1.72-18.6 2.46-27.91 1.03-4.1 2.561-8.06 3.71-12.14 1.64-4.38 1.04-9.15.79-13.7-4.17 3.07-7.84 6.77-11.52 10.39-4.59 6.301-6.97 13.86-10.01 20.971-5.25 12.8-10.91 25.42-16.59 38.029-4.05-.479-8.18-.609-12.109.63-5.44.271-10.9-.01-16.351.21-3.09-5.38-5.35-11.17-8.27-16.63 4.7-6.35 11.56-10.939 15.36-17.939-4.51-4.12-8.05-9.141-12.33-13.46-4.01-3.971-7.52-8.391-11.2-12.65-3.29-4.78-8.41-7.75-12.36-11.899-8.56 8.63-15.12 18.93-22.58 28.46-3.65 4.72-7 9.659-9.94 14.84 3.82 3.63 7.47 7.45 11.24 11.14 1.63 1.67 3.53 3.271 4.18 5.63-2.47 2.221-4.49 4.99-7.4 6.681-.95.84-1.89 1.71-2.82 2.579-7.16 1.061-14.38 1.711-21.5 3.091-1.31.02-2.92.89-4.07-.051-6.12-9.279-10.271-19.659-15.49-29.439-6.82-11.22-13.46-22.601-21.47-33.03-.4-.18-1.19-.56-1.59-.75-.14 2.96.09 5.93.67 8.83.25 2.12.51 4.24.72 6.37 1.56 9.52 3.14 19.06 3.94 28.68 3.07 1.54 6.04 3.28 9.08 4.86-1.88 7.81-5.32 15.04-9.03 22.12-2.4 6.439-9.12 9.56-12.681 15.22-2.28 2.55-3.649 5.91-6.34 8.061.47 1.109.97 2.22 1.71 3.199 5.3 7.29 10.55 14.62 16.21 21.65 3.59 4.12 5.23 9.47 7.26 14.439 4.91.561 9.82-.31 14.73-.279 4.51.66 8.94 1.859 13.44 2.62 1.75 6.46 3.29 13.029 5.97 19.189.42 1.3 1.28 2.53 1.2 3.97-5 1.37-10.23 1.721-15.24 3.011-3.23 1.649-2.77 5.68-3.65 8.67-1.99 6.34-.25 12.88.141 19.31 1.479 3.601 3.83 6.811 5.71 10.221 4.18.369 8.399.35 12.57.88 5.35.659 10.65-.88 16-.37 1.92 3.7 5.19 6.649 6.82 10.45.17 44.93.03 89.869.06 134.8.08 3.5 1.19 6.87 1.98 10.26-3.57 2.55-7.69 4.16-11.45 6.39-.37 11.221.76 22.4 1 33.61 5.1 2.31 10.48 4.04 15.83 5.69 1.65 3.279 2.2 6.939 2.61 10.56 3.28.78 6.63 1.18 9.939 1.76 6.29 1.3 12.72.021 19.01-.71.04-3.35.12-6.71.66-10.02 4.16-1.67 7.93-4.11 11.91-6.13 2.061-.96 3.23-3 4.63-4.69-.07-10.02.48-20.01.37-30.03-2.979-2.729-6.75-4.229-10.74-4.67-.05-6.08 2.13-11.95 1.77-18.05.14-23.96-.44-47.95.38-71.89.01-11.71-.06-23.431.03-35.141.86-7.939 1.04-15.93.93-23.899 3.44-2.311 6.33-5.33 9.74-7.65 1.88-.33 3.82-.2 5.72-.1 7.57.729 15.21.149 22.73-.761 1.439-5.569 4.6-10.729 4.64-16.59.12-3.949 1.19-7.899.46-11.84-.6-3.53-1.45-7-2.28-10.47-4.56-.521-9.15-.92-13.62-1.96.57-4.83 2.13-9.46 2.84-14.25 2.6-3.3 5.149-6.65 7.85-9.87 4.81-.46 9.67-.07 14.51-.17 3.101-3.98 7.19-7.16 9.601-11.66 2.18-3.36 2.75-7.51 5.41-10.59 4.23-6.74 11.25-11.351 15.4-18.01-.639-.652-1.268-1.313-1.903-1.97l-10.955-1.357Zm-191.473 4.205c3.25-3.84 6.43-7.721 9.8-11.45 1 2.69 1.9 5.42 2.71 8.18-4.13 1.23-8.239 2.58-12.51 3.27Zm99.721-77.03c1.46-2.09 3.49-3.8 6.14-3.99.74 3.42-2.05 5.82-3.8 8.36-2.561 3.17-4.36 6.96-7.51 9.63 1.67-4.68 1.71-10.14 5.17-14Zm-61.83 90.77c5.81-.16 10.62 3.72 14.27 7.84 1.64 1.79 2.04 4.25 2.44 6.56-4.61-5.84-10.221-10.75-16.71-14.4Zm15.05-23.7c1.07.189 2.15.39 3.229.59-.92 3.58.65 8.29-2.45 10.92-.649-3.8-.84-7.66-.779-11.51Zm1.65 102.64c-.94-4.29-2.07-8.54-2.91-12.85 3.02 3.34 5.97 6.75 8.87 10.199-1.99.881-3.98 1.771-5.96 2.651Zm16.119 205.87c-.09-2.15.01-4.3.22-6.43 1.4 0 2.81.02 4.21.04a16.149 16.149 0 0 1-4.43 6.39Zm50.58-27.85c-5.4 2.54-11.56 2.449-17.03 4.649-2.31 3.11-3.94 6.67-5.83 10.04 4.37-.51 8.74-.97 13.13-1.24-3.62 4.341-7.46 8.5-11.01 12.9-3.94-1.4-9.37-1.11-11.63-5.22-4.229-6.46-8.21-13.09-12.02-19.801 3.2-1.27 6.07-3.239 9.24-4.55 6.88-.37 13.78.95 20.67.101 4.871.671 9.551 2.521 14.48 3.121Zm-29.689-147.87c4.49 1.91 8.88 4.029 13.43 5.79-6.52 5.52-13.16 10.979-20.43 15.489-.81.07-2.42.21-3.22.29 3.11-2.89 6.72-5.18 9.88-7.989.71-4.48.06-9.07.34-13.58Zm-7.971 46.14c4.33-3.19 8.87-6.08 13.28-9.15 1.02-3.64-.76-7.01-1.93-10.35 2.58-1.58 4.729-4.13 7.51-5.2 3.24 2.67 6.24 5.63 9.18 8.641-.5 1.529-1.01 3.069-1.5 4.619-2.81.261-6.13-.649-8.35 1.551-6.48 5.359-13.56 9.96-20.72 14.359.721-1.55 1.001-3.48 2.53-4.47Zm2.921 64.82c-1.36 1.29-3.35 1.04-5.06 1.29 3.92-3.721 8.23-6.98 12.32-10.5a90.04 90.04 0 0 0-2.2-7.63c2.48-1.83 5-3.62 7.51-5.391 2.64 2.11 5.17 4.351 7.61 6.67-6.93 4.911-13.59 10.201-20.18 15.561Zm16.119 13.01c-2.13-2.28-4.2-4.61-6.27-6.94 2.65-2.3 5.46-4.42 8.52-6.149.75 4.499.941 9.419-2.25 13.089Zm-1.059-52.9c-5.72 4.261-11.51 8.431-17.1 12.87-1.03-.87-2.05-1.729-3.08-2.59 4.46-2.79 8.85-5.71 13.34-8.46-.91-4.13-2.36-8.28-1.47-12.55 1.72-1.82 3.51-3.58 5.4-5.23.49 1.96.98 3.92 1.46 5.891 3.59 1.819 7.22 3.59 10.82 5.41-.601 1.039-1.13 2.149-1.88 3.1-2.391.938-5.34-.141-7.49 1.559Zm7.26-65.581c-1.13-.02-3.39-.069-4.52-.1 4.56-3.47 9.51-6.39 14.36-9.43-2.921 3.53-6.41 6.511-9.84 9.53Zm8.25-52.969c-2.85 5.391-4.17 11.391-6.31 17.061-4.73-.721-9.51-1.07-14.29-1.341-.16 4.131-.46 8.261-.63 12.4-3.86-3.47-7.03-7.61-10.85-11.11-1.89 2.101-3.93 4.061-6.14 5.82-3.98-5.43-6-11.97-9.771-17.52-2.6-3.271-1.59-7.591-1.72-11.42-4.75.05-9.51-.101-14.19-.95 5.88-2.24 12.29-2.601 18.52-2.561 16.73.08 33.46.19 50.19-.02-1.559 3.231-3.18 6.441-4.809 9.641Zm-31.96-77.89c1.28-3.01 2.59-6.01 3.89-9.01 3.91-.881 7.83-1.73 11.71-2.75 2.61 4.35 5.9 8.239 8.41 12.659-8.001 1.061-16.08.361-24.01-.899Zm31.24 38.64c2.63-3.35 5.34-6.76 6.44-10.95.8-3.47 4.54-4.83 7.76-4.5a74.747 74.747 0 0 1-14.2 15.45Zm20.84 47.1c-1.03.35-2.05.699-3.06 1.06-1.65 2.36-2.69 5.78-5.86 6.45-.3-3.9.13-8.12 2.85-11.16 1.98-.74 4.17-.26 6.24-.271-.07 1.301-.121 2.611-.17 3.921Zm-2.3-97.98c-.03 4.82.4 9.88-1.561 14.42-1.17 2.83-1.84 5.9-3.66 8.42-.92-1.39-1.83-2.78-2.76-4.149-.17-2.011-.31-4.011-.43-6.011-1.79 1.851-3.79 3.511-5.31 5.591-1.55 4.05-2.58 8.319-4.82 12.09-.41-3.46-1.95-7.051-.76-10.49 1.78-4.71 1.61-9.91.95-14.811-2.9-1.88-6.17-3.06-9.24-4.619-2.72-1.311-5.38-3.341-8.59-2.79-6.23.59-13.9 1.42-17.17 7.6-1.02 3.56-1.78 7.23-3.38 10.6 3.23 5.311 7.811 9.561 12.01 14.08-1.88 2.221-3.86 4.45-6.56 5.681-4.67-3.78-9.51-7.61-12.35-13.051-1.24.971-2.48 1.931-3.72 2.91-.06-2.739-.1-5.479-.13-8.21a230.958 230.958 0 0 1-4.35 4.12c-1.23-6.88-.27-13.83.46-20.689-2.39-.08-4.78-.141-7.17-.181-.38-3.26-.43-6.54-.28-9.8.36-.42 1.08-1.26 1.44-1.67-3.36.23-6.73.31-10.07-.15 4.04-2.38 8.88-1.01 13.31-1.46 9.32-.699 18.66-.06 27.99-.38 10.32-.45 20.61.63 30.93.46 7.78.75 15.59.09 23.39.521.06.72.17 2.18.23 2.899-2.789 3.029-5.67 5.979-8.399 9.069Zm21.83 30.99c1.42-3.67 3.56-6.98 5.81-10.17.22.37.64 1.12.85 1.5-1.721 3.23-4.25 5.94-6.66 8.67Zm-122.99-227.23c1.157-1.253 2.366-2.587 3.664-3.824-2.067.817-3.983 1.598-5.194 2.405l-.79.526-.85.423c-2.556 1.271-5.1 2.298-7.344 3.205l-1.189.481c-.392 3.28-.63 6.568-.408 9.884 4.771-3.62 8.771-8.16 12.111-13.1Zm182.201-38.249c.312.171.598.348.902.52a59.85 59.85 0 0 0 .466-9.161 141.588 141.588 0 0 1-2.522 4.074l.991.365.163 4.202ZM137.141 241.45l.115.172 16.287 23.644-14.854-.07c4.687 5.615 9.392 11.214 14.284 16.656 3.06 3.609 6.73 6.909 8.48 11.42-2.73 2.81-4.99 6.189-5.55 10.149 2.71 3.99 5.48 7.94 8.41 11.771 2.46-2.891 4.76-5.92 7.36-8.69 2.82-.01 3.51 3.89 5.11 5.79-2.1 3.97-5.88 7.4-5.9 12.18 3.06 3.851 5.82 7.96 9.06 11.681.21-.021.63-.051.84-.07 4.34-5.84 8.38-11.9 13.01-17.53 7.02-9.84 13.52-20.17 21.97-28.88-4.12-.05-8.22.351-12.34.2-1.35-2.24-4.1-3.92-4.43-6.57 2.61-4.92 5.98-9.39 9.27-13.88-1.7-1.99-3.4-3.97-5-6.04 6.26-8.109 12.88-15.97 20.15-23.2 1.34-1.39 2.97-2.439 4.9-2.819.24 4.87-4.64 7.529-6.24 11.779.09.5.29 1.5.38 2.011-2.6 3.59-1.4 8.26-2.13 12.38 6.76-6.4 13.21-13.22 21.03-18.32-1.38 5.9-1.4 11.94-1.229 17.97 8.41-3.96 14.229-11.529 21.359-17.25 3.09 1.061 5.17-2.119 8.16-2.02-4.88 9.63-12.51 17.45-19.17 25.83-1.55 8.399 1.49 16.649 3.51 24.7 3.84-3.931 7.47-8.07 11.46-11.851-.479 4.29-.52 8.601-.399 12.91 3-.04 6.01-.02 9.02.09-2.96 5-6.57 9.58-10.229 14.08-1.351 1.3-.601 3.33-.8 4.98.81-.561 1.62-1.11 2.43-1.66 4.99 7.05 10.03 14.07 14.92 21.2-1.96 2.37-3.8 4.819-5.78 7.17-2.94 3.54-6.88 6.26-8.92 10.5 1.94.479 3.9.91 5.9 1.08 5.689-.13 11.399.069 17.08-.511 4.2-8.72 7.4-17.89 11.62-26.6 2.45-5.07 4.61-10.28 6.36-15.64 1.4-3.721 2.39-7.78 4.91-10.931 5.07-4.26 10.57-8 16.1-11.63 1.68-7.149 3.91-14.16 5.6-21.31.75-2.431 1.136-5.017 2.062-7.387l-11.505-5.114 12.591-15.235a257.473 257.473 0 0 1 2.592-3.07c.604-.708 1.209-1.416 1.808-2.132l.049-.059c3.988-4.715 8.214-9.056 12.47-13.222.307-1.02.617-2.039.917-3.062-.878-.769-1.764-1.545-2.652-2.326-1.972 2.589-3.975 5.16-5.521 8.026-1.34 2.57-3.58 4.439-5.56 6.479-1.61 1.54-3.08 3.431-5.34 4.021.23-4.26-1.25-9.17 1.63-12.83 2.63-3.55 4.5-7.54 6.47-11.48-3.9 1.46-7.84 3-12.03 3.29-6.06 9.061-11.27 18.78-18.41 27.061.23-3.49 1.19-6.87 2.5-10.101 3.84-9.47 7.88-18.859 11.45-28.43 2.605-.522 5.212-1.057 7.822-1.558-3.715-1.878-6.446-4.305-8.418-6.07-.604-.54-1.4-1.253-1.838-1.579-6.619-2.354-12.468-5.532-17.804-8.617l-.272-.157-.265-.168c-2.218-1.409-5.206-2.485-8.339-3.55-1.789-.574-3.342-1.252-4.599-1.801-.308-.134-.671-.293-1-.432l-.662.034c-1.475.074-2.785.588-3.894 1.529l-11.436 9.698-9.703-11.432c-1.242-1.463-2.305-2.897-3.243-4.163a69.069 69.069 0 0 0-1.724-2.262 9.027 9.027 0 0 0-.362-.056 51.22 51.22 0 0 1-1.979 6.081c-1.104 2.906-1.956 6.234-2.857 9.754-1.566 6.122-3.342 13.061-7.004 19.856l-10.997 20.405-14.109-18.392c-3.418-4.455-4.979-9.025-6.231-12.698-.466-1.363-.906-2.652-1.321-3.538l-.15-.321-.135-.328c-.455-1.104-.995-2.287-1.566-3.539-.631-1.384-1.284-2.814-1.926-4.359l-.131-.315-.116-.321a158.616 158.616 0 0 1-3.352-10.293c-3.299 1.259-6.546 2.032-9.647 2.714l-.062.014-.062.013c-3.682.778-7.698 2.546-11.949 4.418-.764.336-1.546.678-2.331 1.019-5.248 8.829-10.843 17.454-16.179 26.236 1.31 2.6 3.81 4.77 4.44 7.6-4.22 6.3-7.12 13.391-11.59 19.561-.96.37-1.92.75-2.88 1.13l-1.49 2.45c-2.45-2.881-3.25-6.7-4.89-10.03-1.79-3.05-.03-6.351.97-9.311-5.787 7.518-11.811 15.113-16.354 23.478Zm207.932-125.319c-1.79.97-2.39 2.99-3.3 4.66-3.234 6.227-7.271 11.944-11.394 17.605 2.575.101 4.95.555 7.181 1.368 2.919-7.754 6.282-15.379 7.513-23.633ZM195.62 123.41l.51-.131.519-.094c.192-.035.454-.155.744-.311a271.419 271.419 0 0 1 2.58-4.153c1.126-1.771 2.362-3.467 3.601-5.161-.123-2.045-.432-4.298-.752-6.633-.012-.085-.023-.175-.036-.261-10.389 7.38-20.708 14.874-30.361 23.196 6.489-2.231 13.008-3.877 19.406-5.491 1.265-.319 2.528-.638 3.789-.961Zm47.996-54.784.239.039c6.044.981 11.24 3.442 14.678 5.07l7.912 3.747.629 8.732c.54 7.496.14 15.277-1.295 25.229l-.018.123-.02.123c-.244 1.515.323 4.037 1.039 6.704.127.107.257.218.39.333.442.351.882.712 1.324 1.076.273.226.602.496.889.725 1.84.311 3.75.635 5.709 1.013l.002-.006.108.028c3.493.677 7.138 1.525 10.807 2.765l2.702.691c9.455 2.419 20.517 5.604 31.097 10.822a94.76 94.76 0 0 0 1.155-3.82c-3.13-.03-6.26-.02-9.39-.14 1.12-3.42 3.46-6.23 4.91-9.49-1.649-3.19-5.95-1.36-8.82-1.8-1.7 1.95-3.45 3.86-5.24 5.73-1.08-1.56-2.12-3.15-3.12-4.75 4.57-5.44 8.99-11.2 11.49-17.93 2.2-6.03 2.38-12.53 2.46-18.87-4.26 5.13-8.72 10.21-14.11 14.19-1.53 1.36-3.63 1.15-5.49.83-3.52 1.68-6.94 3.54-10.44 5.23-1.32-8.89 4.13-16.92 7.18-24.93 2.77-8.14 10.38-13.33 13.47-21.28 3.89-8.92 8.46-17.59 11.2-26.95-.52-.07-1.56-.21-2.08-.27a33.255 33.255 0 0 0-4.38 7.4c-.92.06-1.83.11-2.729.16.1-4.06-.92-8.47 1.01-12.24 2.46-5.1 3.47-10.72 5.01-16.13.21-3.59-.11-7.19-.21-10.78-2.92 4.05-5.08 8.58-7.76 12.79-4.53 7.34-8.07 15.42-14.13 21.69-4.72 7.31-9.8 14.53-16.71 19.97-.47-2.04-.811-4.13-.66-6.23-.15-4.3 3.14-7.49 4.82-11.16-.61-.09-1.82-.26-2.42-.35-9.69 7.15-19.18 14.66-27.68 23.21-2.25 1.87-4.39 4.2-4.63 7.28-.051.423-.086.849-.126 1.274.329.039.652.076.988.12l.24.032Zm154.097 172.925c3.81 7.86 7.73 15.681 12.48 23.03 3.76 5.2 4.93 11.65 7.14 17.57.29 0 .85.01 1.14.01 3.85-2.73 7.46-5.79 11.3-8.54.05-3.38.2-6.78.88-10.09l.15-3.51c-3.08-5.551-6.69-10.86-9.12-16.74-1.46-4.32-4.5-8.2-4.74-12.86 7.58-5.72 14.44-12.42 22.63-17.34-2.29-4.75-5.73-8.81-8.55-13.229-3.51-1.98-7.27-5.271-6.75-9.7-.328.023-.66.031-.993.031-.946 0-1.91-.068-2.862-.068-1.218 0-2.417.111-3.535.617-4.67 3.319-9.68 6.13-14.27 9.58-2.9 2.51-6.89 2.149-10.44 2.6-6.24-6.81-12.18-13.9-19.13-20.01-6.53-6.73-14.75-11.35-22.11-17.07-2.84-1.89-5.85-3.5-8.93-4.96-.95-.44-1.9-.88-2.84-1.32-.03-.77-.1-2.32-.13-3.09-1.93-.71-3.83-1.46-5.73-2.22-1.299-.691-2.66-.872-4.046-.872-1.524 0-3.078.219-4.611.219-1.087 0-2.164-.11-3.213-.487-.55-.15-1.63-.45-2.18-.59-1.87-1.04-3.82-1.92-5.66-3.02-9.04-4.52-18.83-7.44-28.6-9.94-.16.49-.48 1.48-.65 1.97l-.68-2.07c-5.69-2.32-11.8-3.29-17.83-4.31-3.33-.41-5.74-2.92-8.26-4.88-1.76-1.58-4.1-2.93-4.58-5.44-1.4-5.03-2.91-10.25-2.06-15.52 1.05-7.28 1.71-14.65 1.18-22.01-3.42-1.62-6.9-3.21-10.66-3.82-2.63-.34-5.27-.55-7.89-.95-2.37 1.74-5.02 3.1-8.03 3.13-1.229-.674-2.569-.805-3.929-.805-.872 0-1.752.054-2.617.054-.189 0-.376-.003-.563-.009-.08.65-.25 1.93-.34 2.57-.22.44-.68 1.31-.91 1.74-1.71 9.72 2.2 19.32 1.33 29.06-.15 2.65-.14 5.3-.11 7.96-6.62 3.53-11.38 10.32-19.05 11.72-12.02 3.08-24.35 5.79-35.28 11.91-.75.48-1.39 1.11-2.05 1.69-.371.025-.748.033-1.128.033-.792 0-1.598-.036-2.397-.036-1.618 0-3.211.148-4.614 1.043-11.3 6.09-21.72 13.62-32.5 20.55-12.4 8.36-25.47 16.26-35.351 27.7-.625.777-1.517.964-2.453.964-.785 0-1.601-.131-2.317-.154-8.04-4.06-14.97-9.859-21.88-15.569-1.771-.08-3.54-.12-5.311-.17-.79 1.27-1.54 2.58-2.26 3.89-.89.37-1.77.74-2.66 1.11-3.27 7.779-6.02 15.79-9.5 23.489-.55 1.24-.88 2.561-1.22 3.881 6.25 4.59 13.37 7.659 20.3 11.029 1.9 2.141 2.47 5.32 3.39 8.021-9.77 20.479-17.83 41.84-23.31 63.88-.37 1.71-.46 3.49-.3 5.25 1.77 5.54 1.49 11.46 1.85 17.22-1.79-.01-3.58-.01-5.37-.02-1.55 5.439-1.1 11.149-1.31 16.729-.41 5.36-1 10.72-1.56 16.07-3.69 1.82-7.82 2.87-11.16 5.32-2.11 2.829-3.77 5.979-5.41 9.1-.66-.01-1.32-.01-1.98-.01-1.56-3.23-3.54-6.23-5.13-9.45-2.74 2.58-5.72 4.88-8.38 7.54.11 4.85-.08 9.71-.05 14.57 2.35 2.729 3.25 6.859 6.31 8.85 5.162.188 10.336.544 15.508.544 1.971 0 3.942-.052 5.912-.184.963-.041 1.932-.087 2.899-.087 1.153 0 2.305.064 3.441.276 2.97 4.46 6.05 8.88 8.8 13.48 3.76 10.479 7.56 21 12.819 30.85 3.71 6.521 6.87 13.42 12 19 5.03 7.13 11.62 12.9 17.36 19.42-.73-3.43-.74-6.979-1.53-10.38-2.79-5-6.5-9.43-9.35-14.4-6.81-13.449-11.7-27.77-16.21-42.13-.96-4.14-1.47-8.37-2.39-12.51-.1-.8-.29-2.4-.39-3.2 13.92-4.899 29.17-3.56 43.36-6.939 1.99-1.561 3.61-3.521 5.5-5.19-4.32-1.2-8.84-1.62-13.05-3.18-4.94-2.15-9.26-5.47-14.16-7.68-4.55-1.74-9.521-2.11-14.01-3.94-3.46-2.69-6.29-6.07-9.71-8.81-.14-19.431 2.05-38.82 5.6-57.91 3.95-14.96 9.19-29.66 16.62-43.261 3.02-4.189 5.53-8.859 9.13-12.579 3.4 0 6.78.54 10.19.6 6.42.51 11.96 4.08 18.04 5.81 1.938.158 3.879.197 5.822.197 1.916 0 3.833-.038 5.748-.038l.64.001c-2.9-4.21-5.19-8.81-8.27-12.88-3.95-4.31-8.07-8.53-11.8-12.99 0-4.64 1.77-9.05 2.46-13.6 4.07-4.45 8.3-8.76 12.41-13.17 4.19-3.21 8.64-6.09 12.92-9.19 3.27-2.52 7.87-2.1 10.96-4.95 5.359-4.32 12.149-5.96 18.16-8.95 4.2-2.8 9.16-4.08 13.67-6.26 6.91-2.76 13.54-6.37 20.88-7.92 3.41-.75 6.85-1.56 9.979-3.17 3.552-.815 7.171-1.183 10.798-1.183 1.224 0 2.449.042 3.672.123 1.32 7.27 3.35 14.4 5.87 21.34 1.11 2.67 2.41 5.271 3.51 7.94 2.08 4.44 2.84 9.52 5.87 13.47 4.71-8.74 5.58-18.79 9.1-27.97 2.08-5.13 2.57-10.7 4.13-15.98 1.768.154 3.578.17 5.397.17l1.392-.001c4.927 0 9.861.114 14.171 2.771 3 2.63 5.04 6.17 7.62 9.21 3.62-3.07 8.08-4.83 12.84-5.07a7.814 7.814 0 0 1 1.891-.229c3.432 0 6.574 2.143 9.81 3.159 4.04 1.37 8.08 2.84 11.7 5.14 4.93 2.85 9.97 5.57 15.35 7.48 5.45 1.74 8.25 7.46 13.79 9.13 3.29 2.38 6.02 5.43 8.88 8.3 4.41 4.26 9.05 8.27 13.66 12.31 1.39 1.35 3.54 2.26 3.97 4.35.9 3.721 2.09 7.391 2.59 11.19-6.89 6.54-13.84 13.05-19.98 20.31-1.44 1.721-2.91 3.4-4.34 5.13 2.25 1 4.36 2.381 6.74 3.061 3.3-.09 6.51-.99 9.76-1.54 8.37-1.37 15.74-6.4 24.29-6.97 2.991-.332 5.961-.812 8.961-1.142Zm76.82 124.72c.08-1.796-1.294-4.263-3.201-4.263-.239 0-.485.039-.739.122-3.673.68-7.376.979-11.079.979-5.178 0-10.358-.584-15.471-1.528.15-9.15-.11-18.29-.11-27.43-1.87-12.91-.89-26.17-4.38-38.83-.61-5.76-3.67-10.75-5.75-16.04-3.25 1.93-5.76 4.82-8.85 6.96-.9 4.35-2.25 8.67-2.78 13.07 1.6 3.05 3.89 5.649 5.71 8.569 1.54 2.181.74 4.97.89 7.46-.04 7.351-2.51 14.48-2.36 21.84 1.05 8.49.23 17.051.34 25.58-5.33 2.69-10.74 5.28-16.32 7.4-8.01 2.229-15.92 4.76-23.79 7.439-5.28 1.461-9.36 5.341-14.19 7.74 6.79.84 13.35 3 20.15 3.91 7.02 1.78 14.29 1.42 21.47 1.76 1.1 2.32 1.96 4.74 2.9 7.13 2.28 4.79.58 10.16.24 15.181-.15 3.8-1.54 7.38-2.4 11.05.377.456.742.923 1.104 1.393-3.049 8.57-6.45 17.009-10.56 25.127-2.85 4.971-6.56 9.4-9.35 14.4-.79 3.4-.8 6.95-1.53 10.38 5.74-6.52 12.33-12.29 17.36-19.42 5.13-5.58 8.29-12.479 12-19 2.059-3.854 3.892-7.813 5.588-11.831a236.443 236.443 0 0 0 3.479-6.849c1.83-4.811 2.65-9.95 4.28-14.83 2.7-2.9 5.96-5.2 8.92-7.8 8.09.329 16.174.945 24.288.945 1.233 0 2.467-.014 3.702-.046 4.699-9.688 1.019-20.428.439-30.568Z" fill="currentColor" fill-rule="nonzero"/></svg>