<svg xmlns="http://www.w3.org/2000/svg" data-v-6a8f98c4="" preserveAspectRatio="none" height="74" viewBox="0 0 1501 67" class="header-bg"><path data-v-6a8f98c4="" d="m1499.69460971 57.12426822-.75040686 1.44347131.37520343 1.23675546-.75040686 1.4434713-1.50081372 1.44347132-2.25829989-.6187317-2.25122058.82473962-4.12723773.41201584-3.7520343.35467343-2.14503093-.35467343h-3.85822395l-2.25829989.41272377 2.25829989-1.64947923 2.25122058-3.0922426-1.88309646.20600792-3.37683087 1.23675545-2.62642401 1.44347131-2.30077575.82473962s-2.20166541 1.03074753-2.95207227 1.23675545-25.52091255-.6187317-25.52091255-.6187317l-2.62642401.35467344-1.1326896-.9726972-2.62642401-.8247396-2.80340676-.21308724-1.6990344-.81836824-.75040686-1.6487713-.75040686 1.23675546-1.50081372-.41201584h-2.25122058l-4.50952047.41201584-1.11853098 1.23746339-3.00870675.41201584-11.63130633 2.06149507-2.25122058.82473962-.58758273-.6187317-3.17153088-.20600792-3.37683087.20600793-2.25122058.50617066-1.50081372-.9181865-1.87601715-.20600793-1.87601715.20600792-1.87601715-.26405826h-.75040686l-.75040686.6760741h-1.87601715l-4.13431704-.61802376-10.88089947-2.26821092 1.12561029 2.26821092-2.25122058.41201584-1.87601715.71217859-2.63350332.11256103-2.25122058-.20600792-3.7520343-.82473962-3.7520343-1.64947923-1.87601715-1.4434713-1.87601715-.87358686-1.12561029-.98119237-.37520343-1.85619508 1.87601715-1.03074753s0-.82473962-.37520343-1.00950961c-.37520343-1.05198547-1.87601715 0-1.87601715 0s-.58050342 0-1.71319302-.22724585c-.91323099.20600792-.53802756 1.64947923-.53802756 1.64947923l-1.88309646 1.76345612-1.12561029 2.1535261-.75040686.82473962-4.12723773.82473961h-4.50244116l-10.51277535.41201584h-5.25284802l-19.14245424-.82403168-2.62642401.20600792-.75040686-.21308723.37520343-2.46713953-1.50081372-.41272378h-2.44944126s-2.80340676-.41201584-3.17861019 0l-1.50081372-2.47421884-.38228274-2.267503-1.12561029 2.47421885-.37520343 2.267503h-1.50081372s-2.62642401-.41201585-3.37683087-.41201585-3.00162744 1.03074754-3.00162744 1.03074754l-2.25122058 2.26113161-2.25122058-.19963654-2.25122058.41272377-2.25122058 1.79743681-2.25829989-.14795758-3.00162744 1.33020235-2.49191712.5252848h-1.63532061l-1.12561029-1.4434713s0-1.03074754.37520343-1.44347132c.03539655.47856136.0707931.13167517.10618965-.10335792l-3.48302052.93588478-6.01033419 1.3040089s-7.12886517.75040686-8.25447546.75040686-9.75528918 1.12631822-10.51277535.75040686c-.75040686-.37520343-4.12723773-.37520343-7.12886517-1.12561029-3.00162744-.75111479-8.62967889-2.2519285-8.62967889-2.2519285l-.75040686-1.12631823s-.75040686.75040686-1.12561029.75040686-6.38553762-.37520343-6.38553762-.37520343l-4.87764459-.37520343c-1.87601715 0-2.25122058-1.50152165-2.25122058-1.50152165l-.75040686 1.50152165c-2.25122058.37520343-4.12723773.37520343-4.12723773.37520343h-2.25829989l-3.00162744.37520343-3.37683087.37591136c-1.50081372 0-1.12561029-.37591136-1.87601715-.75111479 0 0-1.50081372.7511148-2.25122058.7511148-2.44944126 0-4.955517.33555929-5.62805145 0-.75040686-.37591137-1.50789303-.7511148-1.50789303-.7511148l-.64421721.7511148c-3.85822395 0-6.10944453-.37591137-6.10944453-.37591137l-7.87927203-1.12561029-4.13431704-.75040686-.1415862-.7511148v-1.12631821l-1.1326896-.62864273v3.2564826l.15574482.75040686c1.11853098.7511148 1.87601715 1.32383097 1.87601715 1.32383097s-16.51603023 1.67921233-18.01684395 1.3040089c-1.50081372-.37591136-3.37683087-1.87672508-3.37683087-1.87672508l-2.63350332-.37591136-3.7520343.37591136h-4.31129979l-3.56797224.75040686-2.9025171-.75040686h-6.10944453c-1.87601715 0-3.37683087-.75111479-3.37683087-.75111479l-5.62805145-.37520343-3.14321364.37520343h-2.10963438v-1.87672508l-1.88309646 2.62783987-1.50081372.75040686c-1.87601715.95499892-.97694478 0-2.10963438-.17769068-.89199306-.57271618-2.39280678-.94862754-2.39280678-.94862754l-1.12561029-1.12561029-2.62642401-.37520343s.75040686 1.12561029-.75040686 1.12561029-2.25122058.37520343-2.25122058.37520343l-.37520343 1.12631822c-3.37683087.95499892-5.63513076.75040686-6.38553762.95499892-.75040686-.95499892-3.39098949-.769521-4.50244116-.95499892-2.25122058-.17769068-.75040686 0-2.25122058-.17769068-.93446892-.57271618-4.12723773.17769068-4.12723773.17769068h-7.13594448c-2.25122058 0-3.37683087.95499892-3.37683087.95499892s.7787241.54652273-.75040686.54652273c-1.12561029 0-2.62642401.37520343-2.62642401.37520343-3.7520343-.75040686-4.12723773-.75040686-4.12723773-.75040686l-2.25122058-.37591136v-1.87672508s1.12561029-1.50081372.37520343-1.12561029-1.87601715 2.07423783-2.62642401 2.07423783-4.50952047-1.32383097-5.47938594-1.6990344c-2.03176197-.37520343-3.15737226.37520343-3.15737226.37520343l-1.50081372.7511148s-6.75366174-2.62783988-7.5040686-3.00304331-4.50244116-2.89472986-4.50244116-2.89472986c-2.25829989-.8587203-2.73261366-2.36024195-2.73261366-2.36024195s-2.15211024 1.50152165-1.77690681 2.36024195c.37520343 1.13976891.37520343 1.01800478-.37520343 1.3932082-.75040686.37520344-1.87601715 1.12631823-1.87601715 1.12631823l.75040686 1.87672508.37520343 1.50152165-1.87601715.75040686-3.00162744.75040686s-3.37683087.20459206-5.62805145.20459206h-5.63513076l-3.7520343-.20459206h-4.87764459l-2.62642401.7511148c-2.62642401-.37520344-3.37683087-.54652274-3.37683087-.54652274s0 .1713193-1.50081372.1713193c-1.50789303 0-1.50789303-.37591136-2.48483781-.37591136-1.2742758 0-3.15029295.20459206-3.15029295.20459206h-5.06878596c-.0707931-.55643377-.12742758-.5366117-.18406206-.52174515-.51678963.1415862-12.37463388-.2031762-19.74419559-.43325377h-6.90940656l-.09203103-.31007378-1.40878269.47926929-.84243789-.9726972-1.46541717-.37307963-1.06897581.42617446h-3.00162744l-5.25284802.57271618-5.25284802.17769068h-2.4777585l-1.16808615-.67536617c.15574482.1281355.72916893.4021048-.48847239.67536617-1.12561029.95499892-2.25122058.95499892-2.25122058.95499892h-2.55563091s-2.67597918-.66616307-5.46522732-.75677824l-2.48483781.44104101-2.25829989.82473962-1.11853098-.6187317-2.63350332-.20600792-3.37683087.20600793-2.25122058.50617066-1.50081372-.9181865-1.87601715-.20600793-1.76274819.20600792-1.98928611-.26405826h-.75040686l-.75040686.6760741h-1.87601715l-4.13431704-.61802376-10.88089947-2.26821092 1.12561029 2.26821092-2.25122058.41201584-1.87601715.71217859-2.63350332.11256103-2.25122058-.20600792-3.7520343-.82473962-3.7520343-1.64947923-1.87601715-1.4434713-1.87601715-.87358686-1.12561029-.98119237-.37520343-1.85619508 1.87601715-1.03074753s0-.82473962-.37520343-1.00950961c-.37520343-1.05198547-1.87601715 0-1.87601715 0s-1.12561029 0-1.59284475-.22724585c-1.03357926.20600792-.65837583 1.64947923-.65837583 1.64947923l-1.88309646 1.76345612-1.12561029 2.1535261-.75040686.82473962-4.12723773.82473961h-4.3891722l-5.36611698.20600792-5.25992733.20600792h-5.25284802l-19.14245424-.82403168-2.62642401.20600792-.75040686-.21308723.37520343-2.46713953-1.50081372-.41272378h-3.00162744s-2.25829989-.41201584-2.63350332 0l-1.50081372-2.47421884-.37520343-2.267503-1.12561029 2.47421885-.37520343 2.267503h-1.50081372s-2.62642401-.41201585-3.37683087-.41201585-3.00162744 1.03074754-3.00162744 1.03074754l-2.25122058 2.26113161-2.25122058-.19963654-2.25829989.41272377-2.25122058 1.79743681-2.25122058-.14795758-3.00162744 1.33020235-3.00162744.5252848h-1.12561029l-1.12561029-1.4434713s0-1.03074754.37520343-1.44347132c.37520343-.41201584.75040686-.41201584.75040686-.41201584s-.75040686-.41909515-.75040686-1.23746339c0-.20600792-.75040686.81836824-.75040686.81836824h-1.12561029l-1.12561029-1.436392-1.0618965-.19326516-.63005859 1.2240127-1.50789303 1.4434713-2.25122058-.61873169-2.25122058.82473962-4.12723773.41201584-3.7520343.35467343-2.14503093-.35467343h-3.86530326l-2.25122058.41272377 2.25122058-1.64947923 2.25829989-3.0922426-1.87601715.20600792-3.38391018 1.23675545-2.62642401 1.44347131-2.30077575.82473962s-2.20166541 1.03074753-2.95207227 1.23675545-25.52374427-.6187317-25.52374427-.6187317l-2.62713195.35467344-1.12631822-.9726972-2.62713194-.8247396-2.80553055-.21308724-1.6990344-.81836824-.75040686-1.6487713-.75040686 1.23675546-1.50152165-.41201584h-2.25192851l-4.50456495.41201584-1.1256103 1.23746339-3.0030433.41201584-11.63555391 2.06149507-2.25192851.82473962-.58475101-.6187317-3.16869916-.20600792-3.37824673.20600793-2.2519285.50617066-1.50152166-.9181865-1.87672508-.20600793-1.87672508.20600792-1.87672508-.26405826h-.75040686l-.75040686.6760741h-1.87672508l-4.12936153-.61802376-10.88443912-2.26821092 1.12561029 2.26821092-2.25192851.41201584-1.87672508.71217859-2.62713195.11256103-2.25263644-.20600792-3.75274223-.82473962-3.75345016-1.64947923-1.87672508-1.4434713-1.87672508-.87358686-1.12631822-.98119237-.37520343-1.85619508 1.87672508-1.03074753s0-.82473962-.37520343-1.00950961c-.37591136-1.05198547-1.87672508 0-1.87672508 0s-.57837963 0-1.71106923-.22724585c-.91677065.20600792-.54156722 1.64947923-.54156722 1.64947923l-1.87672508 1.76345612-1.12561029 2.1535261-.75040686.82473962-4.12936152.82473961h-4.50385702l-10.50994363.41201584h-5.25426388l-19.14245424-.82403168-2.62783987.20600792-.75040686-.21308723.37520343-2.46713953-1.50152165-.41272378h-2.4480254s-2.80623848-.41201584-3.18214985 0l-1.50081372-2.47421884-.37591136-2.267503-1.12561029 2.47421885-.37520343 2.267503h-1.50152165s-2.62783987-.41201585-3.37824673-.41201585-3.0030433 1.03074754-3.0030433 1.03074754l-2.25192851 2.26113161-2.25192851-.19963654-2.25192851.41272377-2.25192852 1.79743681-2.2519285-.14795758-3.0030433 1.33020235-2.49333299.5252848h-1.63532061l-1.12631822-1.4434713s0-1.03074754.37520343-1.44347132c.03468862.47856136.06937724.13167517.10406586-.10335792l-3.48160466.93588478-6.0060866 1.3040089s-7.13098897.75040686-8.25730719.75040686c-1.12631822 0-9.75882883 1.12631822-10.5092357.75040686-.75111479-.37520343-4.12936152-.37520343-7.13169689-1.12561029-3.0030433-.75111479-8.63321854-2.2519285-8.63321854-2.2519285l-.75040686-1.12631823s-.7511148.75040686-1.12631822.75040686c-.37520343 0-6.3805821-.37520343-6.3805821-.37520343l-4.8797684-.37520343c-1.87672507 0-2.2519285-1.50152165-2.2519285-1.50152165l-.75040686 1.50152165c-2.25192851.37520343-4.1286536.37520343-4.1286536.37520343h-2.25263644l-3.00233537.37520343-3.37824673.37591136c-1.50152165 0-1.12561029-.37591136-1.87672508-.75111479 0 0-1.50152165.7511148-2.25192851.7511148-2.44873333 0-4.95834873.33555929-5.63017524 0-.75040686-.37591137-1.50152166-.7511148-1.50152166-.7511148l-.64775686.7511148c-3.85610016 0-6.10802867-.37591137-6.10802867-.37591137l-7.88210375-1.12561029-4.12936152-.75040686-.14512586-.7511148v-1.12631821l-1.1326896-.62864273v3.2564826l.15220517.75040686c1.12561028.7511148 1.87672508 1.32383097 1.87672508 1.32383097s-16.5153223 1.67921233-18.01684395 1.3040089c-1.50081372-.37591136-3.3775388-1.87672508-3.3775388-1.87672508l-2.62783988-.37591136-3.75345016.37591136h-4.31200772l-3.57009603.75040686-2.90039331-.75040686h-6.10802867c-1.87672508 0-3.3775388-.75111479-3.3775388-.75111479l-5.63017524-.37520343-3.14179778.37520343h-2.11317403v-1.87672508l-1.87672509 2.62783987-1.50152165.75040686c-1.87672508.95499892-.97906857 0-2.11175817-.17769068-.8905772-.57271618-2.39209885-.94862754-2.39209885-.94862754l-1.12631822-1.12561029-2.62713194-.37520343s.75040686 1.12561029-.7511148 1.12561029c-1.50081371 0-2.2519285.37520343-2.2519285.37520343l-.37520343 1.12631822c-3.37824674.95499892-5.63017525.75040686-6.3805821.95499892-.7511148-.95499892-3.39382122-.769521-4.50456496-.95499892-2.25192851-.17769068-.75040686 0-2.25192851-.17769068-.93446892-.57271618-4.1286536.17769068-4.1286536.17769068h-7.13169689c-2.2519285 0-3.3775388.95499892-3.3775388.95499892s.77660031.54652273-.75111479.54652273c-1.12631822 0-2.62713194.37520343-2.62713194.37520343-3.75345016-.75040686-4.1286536-.75040686-4.1286536-.75040686l-2.25263643-.37591136v-1.87672508s1.12631822-1.50081372.37591136-1.12561029c-.7511148.37520343-1.87672508 2.07423783-2.62783987 2.07423783-.75040686 0-4.50385703-1.32383097-5.47655422-1.6990344-2.0303461-.37520343-3.1559564.37520343-3.1559564.37520343l-1.50152165.7511148s-6.75649346-2.62783988-7.50690032-3.00304331-4.50385703-2.89472986-4.50385703-2.89472986c-2.25263644-.8587203-2.729074-2.36024195-2.729074-2.36024195s-2.15069438 1.50152165-1.77549095 2.36024195c.37520343 1.13976891.37520343 1.01800478-.37520343 1.3932082-.75040686.37520344-1.87672508 1.12631823-1.87672508 1.12631823l.75040686 1.87672508.37591136 1.50152165-1.87672508.75040686-3.0030433.75040686s-3.37824673.20459206-5.63017524.20459206h-5.63017525l-3.75345016-.20459206h-4.87906045l-2.62783987.7511148c-2.62713194-.37520344-3.37824674-.54652274-3.37824674-.54652274s0 .1713193-1.50081372.1713193c-1.50152165 0-1.50152165-.37591136-2.48129815-.37591136-1.272152 0-3.14887709.20459206-3.14887709.20459206h-5.07374148c-.06512965-.55643377-.12671964-.5366117-.18123033-.52174515-.5160817.1415862-12.37604974-.2031762-19.74561145-.43325377h-6.90374312l-.09557068-.31007378-1.40595097.47926929-.84526961-.9726972-1.4682489-.37307963-1.06472822.42617446h-3.00233537l-5.25497181.57271618-5.25497182.17769068h-2.47421884l-1.16596236-.67536617c.15645275.1281355.72704514.4021048-.48847239.67536617-1.12561029.95499892-2.2519285.95499892-2.2519285.95499892h-2.55704678s-2.67597918-.66616307-5.46310353-.75677824l-2.4890854.44104101-2.25263644.82473962-1.12561029-.6187317-2.62713194-.20600792-3.37824673.20600793-2.2519285.50617066-1.50152166-.9181865-1.87672508-.20600793-1.76204026.20600792-1.9914099-.26405826h-.7511148l-.75040685.6760741h-1.87672509l-4.12865359-.61802376-10.88514705-2.26821092 1.12631822 2.26821092-2.25192851.41201584-1.87672508.71217859-2.62783988.11256103-2.2519285-.20600792-3.75345017-.82473962-3.75345016-1.64947923-1.87672508-1.4434713-1.87672508-.87358686-1.12631822-.98119237-.37520343-1.85619508 1.87672508-1.03074753s0-.82473962-.37520343-1.00950961c-.37520343-1.05198547-1.87672508 0-1.87672508 0s-1.1256103 0-1.59001303-.22724585c-1.03711891.20600792-.66191549 1.64947923-.66191549 1.64947923l-1.87672508 1.76345612-1.12631822 2.1535261-.75040686.82473962-4.12865359.82473961h-4.38988013l-5.3689487.20600792-5.25497182.20600792h-5.25497181l-19.14245424-.82403168-2.62713194.20600792-.7511148-.21308723.37591137-2.46713953-1.50152165-.41272378h-3.0030433s-2.25192851-.41201584-2.62713195 0l-1.50152165-2.47421884-.37520343-2.267503-1.12631822 2.47421885-.37520343 2.267503h-1.50152165s-2.62713194-.41201585-3.37824673-.41201585c-.75040686 0-3.00233537 1.03074754-3.00233537 1.03074754l-2.25192851 2.26113161-2.25192851-.19963654-2.25263645.41272377-2.2519285 1.79743681-2.25192852-.14795758-3.0030433 1.33020235-3.00233537.5252848h-1.12631822l-1.1256103-1.4434713s0-1.03074754.37520344-1.44347132c.37520343-.41201584.75040686-.41201584.75040686-.41201584s-.75040686-.41909515-.75040686-1.23746339c0-.20600792-.7511148.81836824-.7511148.81836824h-1.12561028l-1.12631822-1.436392-1.1256103-.20600792-2.2519285.61802376-3.0030433-1.44276337-3.37824674-.91677065S-.21366654 57.63256268.0065 57.34089511c.20954758-.11539275 0-57.34099514 0-57.34099514h1279.35874458l221.07977199.06512965v55.61647522l-.75040686 1.44276338Z" fill="currentColor"/></svg>