<svg xmlns="http://www.w3.org/2000/svg" width="66" height="66" viewBox="0 0 66.126 66.124">
  <path d="M24.002 18.362a.171.171 0 00.05-.1.152.152 0 00-.064-.109C12.793 7.009 9.801 9.561 9.847 9.526a33.048 33.048 0 00-3.078 43.547.148.148 0 00.178.061.14.14 0 00.038-.173C4.461 45.17 17.346 26.277 24.002 18.362zm32.3-8.833s-.007-.01-.032-.031l.028.031c.04.035-2.928-2.533-14.129 8.613a.154.154 0 00-.059.113.166.166 0 00.048.095c6.654 7.919 19.524 26.824 17.006 34.616a.136.136 0 00.038.173.148.148 0 00.177-.061 33.05 33.05 0 00-3.081-43.551zm-40.4-4.445c5.665-1.451 14.66 3.261 17.1 4.663a.141.141 0 00.074.027.11.11 0 00.066-.027c.922-.553 10.652-6.084 17.046-4.7a.13.13 0 00.161-.058.127.127 0 00-.052-.164 33.076 33.076 0 00-34.494.031.132.132 0 00-.058.166.131.131 0 00.157.06zm38.936 52.845l-.009.008a.011.011 0 01.009-.008zM33.174 26.554a.182.182 0 00-.1-.049.232.232 0 00-.116.049c-9.882 7.525-26.81 26.127-21.653 31.383a33.053 33.053 0 0043.522 0c5.177-5.256-11.757-23.858-21.651-31.383z" fill="currentColor" fill-rule="evenodd"/>
</svg>