<svg xmlns="http://www.w3.org/2000/svg" width="60" height="74" viewBox="0 0 60.344 74.031">
  <path d="M41.099 11.832A15.809 15.809 0 0044.926-.003 15.846 15.846 0 0033.298 6.44c-4.325 5.7-3.224 10.578-3.224 10.578s5.865 1.015 11.025-5.186zm9.28 27.4a16.078 16.078 0 018.007-14.028s-4.094-7.4-14.5-7.4c-6.046 0-10.691 3.44-13.193 3.44-2.915 0-7.267-3.233-12.875-3.233-8.626 0-17.822 7.723-17.822 22.446 0 14.965 10.865 33.581 19.465 33.581 3 0 7.611-3.023 12.256-3.023 4.558 0 7.92 2.915 12.246 2.915 9.418 0 16.391-19.626 16.391-19.626s-9.975-3.865-9.975-15.071z" fill="currentColor" fill-rule="evenodd"/>
</svg>