<svg xmlns="http://www.w3.org/2000/svg" width="61" height="60" viewBox="0 0 61.469 60.75">
  <path d="M57.223 36.489c-1.156 4.693-3.147 9.1-6.917 11.4a7.619 7.619 0 01-4.873 1.264 1.913 1.913 0 01-.434-.146c-1.878-.844-1.952-4.121-2.049-6.722a47.419 47.419 0 01.345-6.722C44.66 22.824 47.819 10.876 50.551.006H41.59a230.128 230.128 0 00-6.094 24.4h-7.693c.613-8.833.656-19.259-4.872-22.943a8.576 8.576 0 00-7.549-.632C10.735 2.367 7.65 5.681 5.103 9.5a33.423 33.423 0 00-3.216 6.235 25.946 25.946 0 00-1.9 7.6v.874c1.433.02 2.738-.085 4.19-.048 1.269-4.64 3.273-9.16 7.112-11.445 1.162-.692 3.312-1.515 4.919-1.074 1.537.422 2.115 3.126 2.241 5.26a47.586 47.586 0 01-.195 7.064c-1.316 13.31-4.568 25.281-7.356 36.776h8.914a177.98 177.98 0 006.964-27.86c2.473.064 4.926-.141 7.308 0-.5 5.754-.983 12.94.145 18.559 1.057 5.242 3.756 10.278 10.378 8.912 5.069-1.043 8.793-4.857 11.248-8.526a35.636 35.636 0 005.6-14.171v-1.22c-1.462-.03-2.79.072-4.232.053z" fill="currentColor" fill-rule="evenodd"/>
</svg>