<svg xmlns="http://www.w3.org/2000/svg" width="65" height="65" viewBox="0 0 65.875 65.813">
  <path d="M16.487 13.558a6.191 6.191 0 106.216 6.3 6.1 6.1 0 00-6.216-6.3zM30.843.009q-6.757.007-13.51 0a16.51 16.51 0 00-7.306 1.51c-6.227 3-9.766 8-9.9 14.9C-.082 27.427.061 38.442.085 49.453a15.279 15.279 0 00.367 2.991 16.274 16.274 0 004.812 8.666 16.892 16.892 0 0012.045 4.708h13.576c.83 0 .916-.084.916-.916V1c.005-.959-.027-.991-.958-.991zm-4.409 60.439c-.207.016-.387.036-.567.036-2.873 0-5.743.012-8.616 0a11.528 11.528 0 01-8.107-3.064 10.984 10.984 0 01-3.723-8.192c-.052-10.844-.023-21.689-.02-32.53a11.556 11.556 0 019.254-11.094 16.466 16.466 0 012.759-.249c2.767-.031 5.535-.012 8.3-.012h.718v55.105zm39.436-43.1a20.59 20.59 0 00-.354-3.735A16.8 16.8 0 0049.24.022c-3.3-.052-6.607-.011-9.912-.011-.938 0-.951.014-.951.926v63.757c0 1.118 0 1.118 1.09 1.118 3.183 0 6.362.016 9.545-.008a16.91 16.91 0 0016.872-17.045q.006-15.699-.014-31.408zM50.988 42.804a6.618 6.618 0 01.478-13.223 6.618 6.618 0 11-.478 13.226z" fill="currentColor" fill-rule="evenodd"/>
</svg>