<svg xmlns="http://www.w3.org/2000/svg" width="83" height="64" viewBox="0 0 83.75 64.624">
  <path d="M80.22 62.795a.232.232 0 01-.109-.159c0-.054-.019-.149-.027-.272l-.022-.453a.83.83 0 00-.123-.477.669.669 0 00-.21-.17 1 1 0 00.267-.262.949.949 0 00.147-.542.883.883 0 00-.527-.871 1.565 1.565 0 00-.675-.121h-1.653v3.544h.618v-1.451h.967a1.122 1.122 0 01.383.054.4.4 0 01.195.385l.032.565c.011.131.017.226.026.277a.46.46 0 00.042.134l.025.041h.689v-.2zm-.861-1.88a.864.864 0 01-.468.11h-.982v-1h1.044a.85.85 0 01.345.061.421.421 0 01.214.422.46.46 0 01-.153.404zm1.549-1.86a3.2 3.2 0 10.928 2.256 3.165 3.165 0 00-.928-2.256zm-2.258 4.911a2.655 2.655 0 112.645-2.661 2.651 2.651 0 01-2.645 2.661zm-64.9-11.744a14.871 14.871 0 008.168-.418l6.748-2.454v7.093c-.431.074-.9.156-1.338.223a44.267 44.267 0 01-21.033-1.695c-6.6-1.855-7.71-5.728-4.7-7.961a32.171 32.171 0 017.515-3.611l19.552-6.949v7.917l-14.069 5.038c-2.487.893-2.86 2.16-.842 2.817zm69.241-2.763c-1.641 2.059-5.642 3.539-5.642 3.539L47.54 63.705v-7.9l21.934-7.824c2.491-.889 2.877-2.148.852-2.81a14.868 14.868 0 00-8.165.416L47.54 50.739v-8.188l.835-.286a50.614 50.614 0 0110.161-2.16 43.507 43.507 0 0118.927 2.256c6.438 2.037 7.159 5.032 5.525 7.098zM50.372 36.017V15.823c0-2.365-.431-4.543-2.663-5.161-1.7-.554-2.753 1.034-2.753 3.4v50.56L31.31 60.289V.012a164.376 164.376 0 0118.8 5.145c11.544 3.97 15.461 8.905 15.461 20.02 0 10.835-6.691 14.947-15.198 10.84z" fill="currentColor" fill-rule="evenodd"/>
</svg>